<svg fill="none" height="518" width="425" xmlns="http://www.w3.org/2000/svg" xmlns:xlink="http://www.w3.org/1999/xlink"><linearGradient id="a" gradientUnits="userSpaceOnUse"><stop offset="0" stop-color="#7877c6"/><stop offset="1" stop-color="#6663f6"/></linearGradient><radialGradient id="b" cx="0" cy="0" gradientTransform="matrix(0 288.739 -199.426 0 212.262 140.262)" gradientUnits="userSpaceOnUse" r="1"><stop offset="0" stop-color="#fff"/><stop offset="1" stop-color="#fff" stop-opacity="0"/></radialGradient><filter id="c" color-interpolation-filters="sRGB" filterUnits="userSpaceOnUse" height="517.016" width="424.523" x="0" y="0"><feFlood flood-opacity="0" result="BackgroundImageFix"/><feBlend in="SourceGraphic" in2="BackgroundImageFix" result="shape"/><feGaussianBlur result="effect1_foregroundBlur_1706_102550" stdDeviation="50"/></filter><g stroke="url(#a)"><g filter="url(#c)" opacity=".4" stroke-width="18"><path d="m223.031 111.534a2.535 2.535 0 0 1 2.534-2.534h8.869a2.535 2.535 0 1 1 0 5.068h-8.869a2.534 2.534 0 0 1 -2.534-2.534z"/><path d="m201.492 405.481c0 1.4-1.134 2.535-2.534 2.535h-8.869a2.534 2.534 0 0 1 0-5.069h8.869c1.4 0 2.534 1.135 2.534 2.534z"/><path d="m211.628 121.67a2.535 2.535 0 0 1 2.534-2.534h30.409a2.535 2.535 0 0 1 0 5.068h-30.409a2.534 2.534 0 0 1 -2.534-2.534z"/><path d="m212.895 395.345c0 1.4-1.134 2.534-2.534 2.534h-30.408a2.533 2.533 0 1 1 0-5.068h30.408c1.4 0 2.534 1.135 2.534 2.534z"/><path d="m204.026 131.806a2.535 2.535 0 0 1 2.534-2.534h38.011a2.535 2.535 0 0 1 0 5.068h-38.011a2.534 2.534 0 0 1 -2.534-2.534z"/><path d="m220.497 385.209c0 1.4-1.134 2.534-2.534 2.534h-38.01a2.533 2.533 0 1 1 0-5.068h38.01c1.4 0 2.534 1.135 2.534 2.534z"/><path d="m196.424 141.942a2.535 2.535 0 0 1 2.534-2.534h45.613a2.535 2.535 0 0 1 0 5.068h-45.613a2.534 2.534 0 0 1 -2.534-2.534z"/><path d="m228.099 375.073c0 1.4-1.134 2.534-2.534 2.534h-45.612a2.533 2.533 0 1 1 0-5.068h45.612c1.4 0 2.534 1.135 2.534 2.534z"/><path d="m188.822 152.079c0-1.4 1.134-2.535 2.534-2.535h53.215a2.535 2.535 0 0 1 0 5.069h-53.215a2.534 2.534 0 0 1 -2.534-2.534z"/><path d="m235.702 364.937c0 1.4-1.135 2.534-2.535 2.534h-53.214a2.533 2.533 0 1 1 0-5.068h53.214c1.4 0 2.535 1.135 2.535 2.534z"/><path d="m181.22 162.215c0-1.4 1.134-2.534 2.534-2.534h60.817a2.534 2.534 0 1 1 0 5.068h-60.817a2.534 2.534 0 0 1 -2.534-2.534z"/><path d="m243.304 354.801a2.535 2.535 0 0 1 -2.534 2.534h-60.817a2.534 2.534 0 1 1 0-5.068h60.817a2.534 2.534 0 0 1 2.534 2.534z"/><path d="m172.351 172.351c0-1.4 1.134-2.534 2.534-2.534h69.686a2.534 2.534 0 1 1 0 5.068h-69.686a2.534 2.534 0 0 1 -2.534-2.534z"/><path d="m252.173 344.665a2.535 2.535 0 0 1 -2.534 2.534h-69.686a2.534 2.534 0 1 1 0-5.068h69.686a2.534 2.534 0 0 1 2.534 2.534z"/><path d="m164.749 182.487c0-1.4 1.134-2.534 2.534-2.534h77.288a2.534 2.534 0 1 1 0 5.068h-77.288a2.534 2.534 0 0 1 -2.534-2.534z"/><path d="m259.775 334.529a2.535 2.535 0 0 1 -2.534 2.534h-77.288a2.534 2.534 0 1 1 0-5.068h77.288a2.534 2.534 0 0 1 2.534 2.534z"/><path d="m157.147 192.623c0-1.4 1.134-2.534 2.534-2.534h84.89a2.534 2.534 0 1 1 0 5.068h-84.89a2.534 2.534 0 0 1 -2.534-2.534z"/><path d="m267.377 324.393a2.535 2.535 0 0 1 -2.534 2.534h-84.89a2.534 2.534 0 1 1 0-5.069h84.89a2.535 2.535 0 0 1 2.534 2.535z"/><path d="m149.544 202.759a2.535 2.535 0 0 1 2.535-2.534h92.492a2.535 2.535 0 0 1 0 5.068h-92.492a2.534 2.534 0 0 1 -2.535-2.534z"/><path d="m274.979 314.256c0 1.4-1.135 2.534-2.534 2.534h-92.492a2.533 2.533 0 1 1 0-5.068h92.492a2.535 2.535 0 0 1 2.534 2.534z"/><path d="m141.942 212.895a2.535 2.535 0 0 1 2.534-2.534h100.095a2.535 2.535 0 0 1 0 5.068h-100.095a2.534 2.534 0 0 1 -2.534-2.534z"/><path d="m282.581 304.12c0 1.4-1.134 2.534-2.534 2.534h-100.094a2.533 2.533 0 1 1 0-5.068h100.094c1.4 0 2.534 1.135 2.534 2.534z"/><path d="m134.34 223.031a2.535 2.535 0 0 1 2.534-2.534h107.697a2.535 2.535 0 0 1 0 5.068h-107.697a2.534 2.534 0 0 1 -2.534-2.534z"/><path d="m290.183 293.984c0 1.4-1.134 2.534-2.534 2.534h-107.696a2.533 2.533 0 1 1 0-5.068h107.696c1.4 0 2.534 1.135 2.534 2.534z"/><path d="m126.738 233.167a2.535 2.535 0 0 1 2.534-2.534h115.299a2.535 2.535 0 0 1 0 5.069h-115.299a2.535 2.535 0 0 1 -2.534-2.535z"/><path d="m297.785 283.848c0 1.4-1.134 2.534-2.534 2.534h-115.298a2.533 2.533 0 1 1 0-5.068h115.298c1.4 0 2.534 1.135 2.534 2.534z"/><path d="m119.136 243.304c0-1.4 1.135-2.534 2.534-2.534h190.052a2.533 2.533 0 1 1 0 5.068h-190.052a2.535 2.535 0 0 1 -2.534-2.534z"/><path d="m111.534 253.44c0-1.4 1.135-2.534 2.534-2.534h198.921a2.533 2.533 0 1 1 0 5.068h-198.921a2.535 2.535 0 0 1 -2.534-2.534z"/><path d="m109 263.576c0-1.4 1.135-2.534 2.534-2.534h195.12a2.533 2.533 0 1 1 0 5.068h-195.12a2.535 2.535 0 0 1 -2.534-2.534z"/><path d="m120.403 273.712c0-1.4 1.135-2.534 2.534-2.534h183.717a2.533 2.533 0 1 1 0 5.068h-183.717a2.535 2.535 0 0 1 -2.534-2.534z"/></g><g opacity=".4" stroke-opacity=".2" stroke-width="2"><path d="m223.031 111.534a2.535 2.535 0 0 1 2.534-2.534h8.869a2.535 2.535 0 1 1 0 5.068h-8.869a2.534 2.534 0 0 1 -2.534-2.534z"/><path d="m201.492 405.481c0 1.4-1.134 2.535-2.534 2.535h-8.869a2.534 2.534 0 0 1 0-5.069h8.869c1.4 0 2.534 1.135 2.534 2.534z"/><path d="m211.628 121.67a2.535 2.535 0 0 1 2.534-2.534h30.409a2.535 2.535 0 0 1 0 5.068h-30.409a2.534 2.534 0 0 1 -2.534-2.534z"/><path d="m212.895 395.345c0 1.4-1.134 2.534-2.534 2.534h-30.408a2.533 2.533 0 1 1 0-5.068h30.408c1.4 0 2.534 1.135 2.534 2.534z"/><path d="m204.026 131.806a2.535 2.535 0 0 1 2.534-2.534h38.011a2.535 2.535 0 0 1 0 5.068h-38.011a2.534 2.534 0 0 1 -2.534-2.534z"/><path d="m220.497 385.209c0 1.4-1.134 2.534-2.534 2.534h-38.01a2.533 2.533 0 1 1 0-5.068h38.01c1.4 0 2.534 1.135 2.534 2.534z"/><path d="m196.424 141.942a2.535 2.535 0 0 1 2.534-2.534h45.613a2.535 2.535 0 0 1 0 5.068h-45.613a2.534 2.534 0 0 1 -2.534-2.534z"/><path d="m228.099 375.073c0 1.4-1.134 2.534-2.534 2.534h-45.612a2.533 2.533 0 1 1 0-5.068h45.612c1.4 0 2.534 1.135 2.534 2.534z"/><path d="m188.822 152.079c0-1.4 1.134-2.535 2.534-2.535h53.215a2.535 2.535 0 0 1 0 5.069h-53.215a2.534 2.534 0 0 1 -2.534-2.534z"/><path d="m235.702 364.937c0 1.4-1.135 2.534-2.535 2.534h-53.214a2.533 2.533 0 1 1 0-5.068h53.214c1.4 0 2.535 1.135 2.535 2.534z"/><path d="m181.22 162.215c0-1.4 1.134-2.534 2.534-2.534h60.817a2.534 2.534 0 1 1 0 5.068h-60.817a2.534 2.534 0 0 1 -2.534-2.534z"/><path d="m243.304 354.801a2.535 2.535 0 0 1 -2.534 2.534h-60.817a2.534 2.534 0 1 1 0-5.068h60.817a2.534 2.534 0 0 1 2.534 2.534z"/><path d="m172.351 172.351c0-1.4 1.134-2.534 2.534-2.534h69.686a2.534 2.534 0 1 1 0 5.068h-69.686a2.534 2.534 0 0 1 -2.534-2.534z"/><path d="m252.173 344.665a2.535 2.535 0 0 1 -2.534 2.534h-69.686a2.534 2.534 0 1 1 0-5.068h69.686a2.534 2.534 0 0 1 2.534 2.534z"/><path d="m164.749 182.487c0-1.4 1.134-2.534 2.534-2.534h77.288a2.534 2.534 0 1 1 0 5.068h-77.288a2.534 2.534 0 0 1 -2.534-2.534z"/><path d="m259.775 334.529a2.535 2.535 0 0 1 -2.534 2.534h-77.288a2.534 2.534 0 1 1 0-5.068h77.288a2.534 2.534 0 0 1 2.534 2.534z"/><path d="m157.147 192.623c0-1.4 1.134-2.534 2.534-2.534h84.89a2.534 2.534 0 1 1 0 5.068h-84.89a2.534 2.534 0 0 1 -2.534-2.534z"/><path d="m267.377 324.393a2.535 2.535 0 0 1 -2.534 2.534h-84.89a2.534 2.534 0 1 1 0-5.069h84.89a2.535 2.535 0 0 1 2.534 2.535z"/><path d="m149.544 202.759a2.535 2.535 0 0 1 2.535-2.534h92.492a2.535 2.535 0 0 1 0 5.068h-92.492a2.534 2.534 0 0 1 -2.535-2.534z"/><path d="m274.979 314.256c0 1.4-1.135 2.534-2.534 2.534h-92.492a2.533 2.533 0 1 1 0-5.068h92.492a2.535 2.535 0 0 1 2.534 2.534z"/><path d="m141.942 212.895a2.535 2.535 0 0 1 2.534-2.534h100.095a2.535 2.535 0 0 1 0 5.068h-100.095a2.534 2.534 0 0 1 -2.534-2.534z"/><path d="m282.581 304.12c0 1.4-1.134 2.534-2.534 2.534h-100.094a2.533 2.533 0 1 1 0-5.068h100.094c1.4 0 2.534 1.135 2.534 2.534z"/><path d="m134.34 223.031a2.535 2.535 0 0 1 2.534-2.534h107.697a2.535 2.535 0 0 1 0 5.068h-107.697a2.534 2.534 0 0 1 -2.534-2.534z"/><path d="m290.183 293.984c0 1.4-1.134 2.534-2.534 2.534h-107.696a2.533 2.533 0 1 1 0-5.068h107.696c1.4 0 2.534 1.135 2.534 2.534z"/><path d="m126.738 233.167a2.535 2.535 0 0 1 2.534-2.534h115.299a2.535 2.535 0 0 1 0 5.069h-115.299a2.535 2.535 0 0 1 -2.534-2.535z"/><path d="m297.785 283.848c0 1.4-1.134 2.534-2.534 2.534h-115.298a2.533 2.533 0 1 1 0-5.068h115.298c1.4 0 2.534 1.135 2.534 2.534z"/><path d="m119.136 243.304c0-1.4 1.135-2.534 2.534-2.534h190.052a2.533 2.533 0 1 1 0 5.068h-190.052a2.535 2.535 0 0 1 -2.534-2.534z"/><path d="m111.534 253.44c0-1.4 1.135-2.534 2.534-2.534h198.921a2.533 2.533 0 1 1 0 5.068h-198.921a2.535 2.535 0 0 1 -2.534-2.534z"/><path d="m109 263.576c0-1.4 1.135-2.534 2.534-2.534h195.12a2.533 2.533 0 1 1 0 5.068h-195.12a2.535 2.535 0 0 1 -2.534-2.534z"/><path d="m120.403 273.712c0-1.4 1.135-2.534 2.534-2.534h183.717a2.533 2.533 0 1 1 0 5.068h-183.717a2.535 2.535 0 0 1 -2.534-2.534z"/></g><path d="m223.031 111.534a2.535 2.535 0 0 1 2.534-2.534h8.869a2.535 2.535 0 1 1 0 5.068h-8.869a2.534 2.534 0 0 1 -2.534-2.534z" stroke-opacity=".2" stroke-width="8"/><path d="m201.492 405.481c0 1.4-1.134 2.535-2.534 2.535h-8.869a2.534 2.534 0 0 1 0-5.069h8.869c1.4 0 2.534 1.135 2.534 2.534z" stroke-opacity=".2" stroke-width="8"/><path d="m211.628 121.67a2.535 2.535 0 0 1 2.534-2.534h30.409a2.535 2.535 0 0 1 0 5.068h-30.409a2.534 2.534 0 0 1 -2.534-2.534z" stroke-opacity=".2" stroke-width="8"/><path d="m212.895 395.345c0 1.4-1.134 2.534-2.534 2.534h-30.408a2.533 2.533 0 1 1 0-5.068h30.408c1.4 0 2.534 1.135 2.534 2.534z" stroke-opacity=".2" stroke-width="8"/><path d="m204.026 131.806a2.535 2.535 0 0 1 2.534-2.534h38.011a2.535 2.535 0 0 1 0 5.068h-38.011a2.534 2.534 0 0 1 -2.534-2.534z" stroke-opacity=".2" stroke-width="8"/><path d="m220.497 385.209c0 1.4-1.134 2.534-2.534 2.534h-38.01a2.533 2.533 0 1 1 0-5.068h38.01c1.4 0 2.534 1.135 2.534 2.534z" stroke-opacity=".2" stroke-width="8"/><path d="m196.424 141.942a2.535 2.535 0 0 1 2.534-2.534h45.613a2.535 2.535 0 0 1 0 5.068h-45.613a2.534 2.534 0 0 1 -2.534-2.534z" stroke-opacity=".2" stroke-width="8"/><path d="m228.099 375.073c0 1.4-1.134 2.534-2.534 2.534h-45.612a2.533 2.533 0 1 1 0-5.068h45.612c1.4 0 2.534 1.135 2.534 2.534z" stroke-opacity=".2" stroke-width="8"/><path d="m188.822 152.079c0-1.4 1.134-2.535 2.534-2.535h53.215a2.535 2.535 0 0 1 0 5.069h-53.215a2.534 2.534 0 0 1 -2.534-2.534z" stroke-opacity=".2" stroke-width="8"/><path d="m235.702 364.937c0 1.4-1.135 2.534-2.535 2.534h-53.214a2.533 2.533 0 1 1 0-5.068h53.214c1.4 0 2.535 1.135 2.535 2.534z" stroke-opacity=".2" stroke-width="8"/><path d="m181.22 162.215c0-1.4 1.134-2.534 2.534-2.534h60.817a2.534 2.534 0 1 1 0 5.068h-60.817a2.534 2.534 0 0 1 -2.534-2.534z" stroke-opacity=".2" stroke-width="8"/><path d="m243.304 354.801a2.535 2.535 0 0 1 -2.534 2.534h-60.817a2.534 2.534 0 1 1 0-5.068h60.817a2.534 2.534 0 0 1 2.534 2.534z" stroke-opacity=".2" stroke-width="8"/><path d="m172.351 172.351c0-1.4 1.134-2.534 2.534-2.534h69.686a2.534 2.534 0 1 1 0 5.068h-69.686a2.534 2.534 0 0 1 -2.534-2.534z" stroke-opacity=".2" stroke-width="8"/><path d="m252.173 344.665a2.535 2.535 0 0 1 -2.534 2.534h-69.686a2.534 2.534 0 1 1 0-5.068h69.686a2.534 2.534 0 0 1 2.534 2.534z" stroke-opacity=".2" stroke-width="8"/><path d="m164.749 182.487c0-1.4 1.134-2.534 2.534-2.534h77.288a2.534 2.534 0 1 1 0 5.068h-77.288a2.534 2.534 0 0 1 -2.534-2.534z" stroke-opacity=".2" stroke-width="8"/><path d="m259.775 334.529a2.535 2.535 0 0 1 -2.534 2.534h-77.288a2.534 2.534 0 1 1 0-5.068h77.288a2.534 2.534 0 0 1 2.534 2.534z" stroke-opacity=".2" stroke-width="8"/><path d="m157.147 192.623c0-1.4 1.134-2.534 2.534-2.534h84.89a2.534 2.534 0 1 1 0 5.068h-84.89a2.534 2.534 0 0 1 -2.534-2.534z" stroke-opacity=".2" stroke-width="8"/><path d="m267.377 324.393a2.535 2.535 0 0 1 -2.534 2.534h-84.89a2.534 2.534 0 1 1 0-5.069h84.89a2.535 2.535 0 0 1 2.534 2.535z" stroke-opacity=".2" stroke-width="8"/><path d="m149.544 202.759a2.535 2.535 0 0 1 2.535-2.534h92.492a2.535 2.535 0 0 1 0 5.068h-92.492a2.534 2.534 0 0 1 -2.535-2.534z" stroke-opacity=".2" stroke-width="8"/><path d="m274.979 314.256c0 1.4-1.135 2.534-2.534 2.534h-92.492a2.533 2.533 0 1 1 0-5.068h92.492a2.535 2.535 0 0 1 2.534 2.534z" stroke-opacity=".2" stroke-width="8"/><path d="m141.942 212.895a2.535 2.535 0 0 1 2.534-2.534h100.095a2.535 2.535 0 0 1 0 5.068h-100.095a2.534 2.534 0 0 1 -2.534-2.534z" stroke-opacity=".2" stroke-width="8"/><path d="m282.581 304.12c0 1.4-1.134 2.534-2.534 2.534h-100.094a2.533 2.533 0 1 1 0-5.068h100.094c1.4 0 2.534 1.135 2.534 2.534z" stroke-opacity=".2" stroke-width="8"/><path d="m134.34 223.031a2.535 2.535 0 0 1 2.534-2.534h107.697a2.535 2.535 0 0 1 0 5.068h-107.697a2.534 2.534 0 0 1 -2.534-2.534z" stroke-opacity=".2" stroke-width="8"/><path d="m290.183 293.984c0 1.4-1.134 2.534-2.534 2.534h-107.696a2.533 2.533 0 1 1 0-5.068h107.696c1.4 0 2.534 1.135 2.534 2.534z" stroke-opacity=".2" stroke-width="8"/><path d="m126.738 233.167a2.535 2.535 0 0 1 2.534-2.534h115.299a2.535 2.535 0 0 1 0 5.069h-115.299a2.535 2.535 0 0 1 -2.534-2.535z" stroke-opacity=".2" stroke-width="8"/><path d="m297.785 283.848c0 1.4-1.134 2.534-2.534 2.534h-115.298a2.533 2.533 0 1 1 0-5.068h115.298c1.4 0 2.534 1.135 2.534 2.534z" stroke-opacity=".2" stroke-width="8"/><path d="m119.136 243.304c0-1.4 1.135-2.534 2.534-2.534h190.052a2.533 2.533 0 1 1 0 5.068h-190.052a2.535 2.535 0 0 1 -2.534-2.534z" stroke-opacity=".2" stroke-width="8"/><path d="m111.534 253.44c0-1.4 1.135-2.534 2.534-2.534h198.921a2.533 2.533 0 1 1 0 5.068h-198.921a2.535 2.535 0 0 1 -2.534-2.534z" stroke-opacity=".2" stroke-width="8"/><path d="m109 263.576c0-1.4 1.135-2.534 2.534-2.534h195.12a2.533 2.533 0 1 1 0 5.068h-195.12a2.535 2.535 0 0 1 -2.534-2.534z" stroke-opacity=".2" stroke-width="8"/><path d="m120.403 273.712c0-1.4 1.135-2.534 2.534-2.534h183.717a2.533 2.533 0 1 1 0 5.068h-183.717a2.535 2.535 0 0 1 -2.534-2.534z" stroke-opacity=".2" stroke-width="8"/></g><path d="m223.031 111.534a2.535 2.535 0 0 1 2.534-2.534h8.869a2.535 2.535 0 1 1 0 5.068h-8.869a2.534 2.534 0 0 1 -2.534-2.534z" stroke="url(#b)"/><path d="m211.628 121.67a2.535 2.535 0 0 1 2.534-2.534h30.409a2.535 2.535 0 0 1 0 5.068h-30.409a2.534 2.534 0 0 1 -2.534-2.534z" stroke="url(#b)"/><path d="m204.026 131.806a2.535 2.535 0 0 1 2.534-2.534h38.011a2.535 2.535 0 0 1 0 5.068h-38.011a2.534 2.534 0 0 1 -2.534-2.534z" stroke="url(#b)"/><path d="m196.424 141.942a2.535 2.535 0 0 1 2.534-2.534h45.613a2.535 2.535 0 0 1 0 5.068h-45.613a2.534 2.534 0 0 1 -2.534-2.534z" stroke="url(#b)"/><path d="m188.822 152.079c0-1.4 1.134-2.535 2.534-2.535h53.215a2.535 2.535 0 0 1 0 5.069h-53.215a2.534 2.534 0 0 1 -2.534-2.534z" stroke="url(#b)"/><path d="m181.22 162.215c0-1.4 1.134-2.534 2.534-2.534h60.817a2.534 2.534 0 1 1 0 5.068h-60.817a2.534 2.534 0 0 1 -2.534-2.534z" stroke="url(#b)"/><path d="m172.351 172.351c0-1.4 1.134-2.534 2.534-2.534h69.686a2.534 2.534 0 1 1 0 5.068h-69.686a2.534 2.534 0 0 1 -2.534-2.534z" stroke="url(#b)"/><path d="m164.749 182.487c0-1.4 1.134-2.534 2.534-2.534h77.288a2.534 2.534 0 1 1 0 5.068h-77.288a2.534 2.534 0 0 1 -2.534-2.534z" stroke="url(#b)"/><path d="m157.147 192.623c0-1.4 1.134-2.534 2.534-2.534h84.89a2.534 2.534 0 1 1 0 5.068h-84.89a2.534 2.534 0 0 1 -2.534-2.534z" stroke="url(#b)"/><path d="m149.544 202.759a2.535 2.535 0 0 1 2.535-2.534h92.492a2.535 2.535 0 0 1 0 5.068h-92.492a2.534 2.534 0 0 1 -2.535-2.534z" stroke="url(#b)"/><path d="m141.942 212.895a2.535 2.535 0 0 1 2.534-2.534h100.095a2.535 2.535 0 0 1 0 5.068h-100.095a2.534 2.534 0 0 1 -2.534-2.534z" stroke="url(#b)"/><path d="m134.34 223.031a2.535 2.535 0 0 1 2.534-2.534h107.697a2.535 2.535 0 0 1 0 5.068h-107.697a2.534 2.534 0 0 1 -2.534-2.534z" stroke="url(#b)"/><path d="m126.738 233.167a2.535 2.535 0 0 1 2.534-2.534h115.299a2.535 2.535 0 0 1 0 5.069h-115.299a2.535 2.535 0 0 1 -2.534-2.535z" stroke="url(#b)"/><path d="m119.136 243.304c0-1.4 1.135-2.534 2.534-2.534h190.052a2.533 2.533 0 1 1 0 5.068h-190.052a2.535 2.535 0 0 1 -2.534-2.534z" stroke="url(#b)"/><path d="m111.534 253.44c0-1.4 1.135-2.534 2.534-2.534h198.921a2.533 2.533 0 1 1 0 5.068h-198.921a2.535 2.535 0 0 1 -2.534-2.534z" stroke="url(#b)"/><path d="m109 263.576c0-1.4 1.135-2.534 2.534-2.534h195.12a2.533 2.533 0 1 1 0 5.068h-195.12a2.535 2.535 0 0 1 -2.534-2.534z" stroke="url(#b)"/><path d="m120.403 273.712c0-1.4 1.135-2.534 2.534-2.534h183.717a2.533 2.533 0 1 1 0 5.068h-183.717a2.535 2.535 0 0 1 -2.534-2.534z" stroke="url(#b)"/><path d="m297.785 283.848c0 1.4-1.134 2.534-2.534 2.534h-115.298a2.533 2.533 0 1 1 0-5.068h115.298c1.4 0 2.534 1.135 2.534 2.534z" stroke="url(#b)"/><path d="m290.183 293.984c0 1.4-1.134 2.534-2.534 2.534h-107.696a2.533 2.533 0 1 1 0-5.068h107.696c1.4 0 2.534 1.135 2.534 2.534z" stroke="url(#b)"/><path d="m282.581 304.12c0 1.4-1.134 2.534-2.534 2.534h-100.094a2.533 2.533 0 1 1 0-5.068h100.094c1.4 0 2.534 1.135 2.534 2.534z" stroke="url(#b)"/><path d="m274.979 314.256c0 1.4-1.135 2.534-2.534 2.534h-92.492a2.533 2.533 0 1 1 0-5.068h92.492a2.535 2.535 0 0 1 2.534 2.534z" stroke="url(#b)"/><path d="m267.377 324.393a2.535 2.535 0 0 1 -2.534 2.534h-84.89a2.534 2.534 0 1 1 0-5.069h84.89a2.535 2.535 0 0 1 2.534 2.535z" stroke="url(#b)"/><path d="m259.775 334.529a2.535 2.535 0 0 1 -2.534 2.534h-77.288a2.534 2.534 0 1 1 0-5.068h77.288a2.534 2.534 0 0 1 2.534 2.534z" stroke="url(#b)"/><path d="m252.173 344.665a2.535 2.535 0 0 1 -2.534 2.534h-69.686a2.534 2.534 0 1 1 0-5.068h69.686a2.534 2.534 0 0 1 2.534 2.534z" stroke="url(#b)"/><path d="m243.304 354.801a2.535 2.535 0 0 1 -2.534 2.534h-60.817a2.534 2.534 0 1 1 0-5.068h60.817a2.534 2.534 0 0 1 2.534 2.534z" stroke="url(#b)"/><path d="m235.702 364.937c0 1.4-1.135 2.534-2.535 2.534h-53.214a2.533 2.533 0 1 1 0-5.068h53.214c1.4 0 2.535 1.135 2.535 2.534z" stroke="url(#b)"/><path d="m228.099 375.073c0 1.4-1.134 2.534-2.534 2.534h-45.612a2.533 2.533 0 1 1 0-5.068h45.612c1.4 0 2.534 1.135 2.534 2.534z" stroke="url(#b)"/><path d="m220.497 385.209c0 1.4-1.134 2.534-2.534 2.534h-38.01a2.533 2.533 0 1 1 0-5.068h38.01c1.4 0 2.534 1.135 2.534 2.534z" stroke="url(#b)"/><path d="m212.895 395.345c0 1.4-1.134 2.534-2.534 2.534h-30.408a2.533 2.533 0 1 1 0-5.068h30.408c1.4 0 2.534 1.135 2.534 2.534z" stroke="url(#b)"/><path d="m201.492 405.481c0 1.4-1.134 2.535-2.534 2.535h-8.869a2.534 2.534 0 0 1 0-5.069h8.869c1.4 0 2.534 1.135 2.534 2.534z" stroke="url(#b)"/></svg>